<svg xmlns="http://www.w3.org/2000/svg" data-name="Layer 1" viewBox="0 0 96 90.11250000000001" x="0px" y="0px"><title>15</title><path d="M39.3,41.47a5,5,0,0,0,.2-3.27c-.49-1.16-3.61-.73-3.61-.73a2.94,2.94,0,0,0,1.39,1.27C38.13,39,39.3,41.47,39.3,41.47Z" transform="translate(-2 -7.95)"/><path d="M41.66,39.57c.37-.79,1.37-.85,1.74-.88a11.92,11.92,0,0,0,1.68-.59,6.51,6.51,0,0,0,1.27-.85s-2.4,0-3.63.14-1.35.51-1.35.51C40.89,39.28,41.29,40.37,41.66,39.57Z" transform="translate(-2 -7.95)"/><path d="M97.66,32.15a2.28,2.28,0,0,0-4.15.67l0,.13L79.93,29.77a8.52,8.52,0,0,0-.83-2.16.63.63,0,0,0-.35-.3c-.71-.25-4.29-1.48-4.93-1.57-.81-.12-1.9.77-2.32,1.16a.63.63,0,0,0-.12.78l.09.16L31.65,18.89l.78-3.27A3.83,3.83,0,0,0,29.59,11L22.41,9.31,22.73,8,17.55,9.23l4.07,3.39.32-1.35L29.12,13a1.81,1.81,0,0,1,1.34,2.17l-.78,3.3L12.9,14.83l.31-1.32L8,14.79l4.07,3.39.33-1.38,16.78,3.63-.67,2.81a1.81,1.81,0,0,1-2.17,1.34l-7.18-1.71.33-1.39-5.18,1.28,4.07,3.39.31-1.31,7.18,1.71a3.83,3.83,0,0,0,4.61-2.84l.68-2.84,24.59,5.53a12.82,12.82,0,0,1-5.54.16c-2.82-.63-4-1.67-6.06-.22-1.25.87-2.08,1.47-2.56,1.83a6.27,6.27,0,0,0,1.88-4.07s-4,3.69-7.12,3.8-4,.83-4.25,2.72A3,3,0,0,0,33,32.83,4.57,4.57,0,0,0,33,35.49c.49,1.58,1.3,1.07.88,2.93s-.35,2.52.46,3.47-.26,1,.66,2.31,1.37,1.31,1.37,1.31l-.05-.24a7.59,7.59,0,0,0,.81,1.49,1.47,1.47,0,0,0-.21.76L34.52,50l-1.1.42a10.81,10.81,0,0,1-2.35.34c-2.63.18-5.62.39-8.2,6.86,0,0-3.21,8.09-4.08,10.3-.68.7-4.77,5-5.74,6.95-2,4-4,4.48-6,4.93-1.55.35-3.16.72-4.3,2.9-1.43,2.74-.56,3.95.09,4.42a3.59,3.59,0,0,0,4.31-.66,3.78,3.78,0,0,1,2.77-1.07c0,.83.19,2.21.93,2.78a1.3,1.3,0,0,0,.8.27,1.54,1.54,0,0,0,.46-.07c1.31-.41,1.4-1.74,1.5-3.16a11.86,11.86,0,0,1,.47-2.94c.4-1.22,1.36-1.62,3.16-2.29a17,17,0,0,0,4.43-2.22A10.92,10.92,0,0,0,26,71.31a24.24,24.24,0,0,0,2.46-3.58,24.26,24.26,0,0,0,3.66,6c-.14.26,0,.82.49,2.59.33,1.23.64,2.3.92,3.25a8.36,8.36,0,0,0-2.67,3.81c-.74,2.61-.24,3.52,2.36,5.49s2.31,4,5.88,2.77,8.58.39,12.32-2,8-3.44,6.13-6.77a20.09,20.09,0,0,0-4.15-5l.05-.39a.66.66,0,0,0,0-.1,16.76,16.76,0,0,1,.19-3.15,1.93,1.93,0,0,0,.28-.55c.3-.29.83-1,1.38-3.12a12.25,12.25,0,0,0,.07-2.86l-.17-3.9a5.34,5.34,0,0,0,1.26-1.12L56,62.3l.53.35a7.78,7.78,0,0,0,1-3.84.62.62,0,0,0,.2,0h.09A20.45,20.45,0,0,1,62,58.78a17.26,17.26,0,0,0,4.67-.58,22.18,22.18,0,0,1,4.49-.65,3.48,3.48,0,0,0,2.53-1.2c1.86-2,2.82-6.32,2.44-11-.7-8.55,3.14-13.31,3.36-13.57l0,0L93,34.92l0,.2a2.28,2.28,0,0,0,4.43,1.05l.55-2.3A2.26,2.26,0,0,0,97.66,32.15ZM73.65,27c.33,0,2.48.75,4.45,1.43.58,1.17.77,2.25.58,2.38s-1.19.21-3.83-.74l-.31-.11a10.36,10.36,0,0,1-1.8-2.44A2.8,2.8,0,0,1,73.65,27ZM49.3,29A13.62,13.62,0,0,1,51.82,29c1.35.07,3.67-2.19,4-2.55l12.94,2.91a6.62,6.62,0,0,0,.92,2.21.62.62,0,0,0,.13.15l1.67,1.4c-.67,2.06-3,9.42-4,14.16a48.47,48.47,0,0,0-13.27-1,3.75,3.75,0,0,1-1.49-.7c-.72-.65-1-1.69-1.84-2.16.27-.55-.36.23,1-1.31,1.53-1.77,2-.88,3.24-1.17a20,20,0,0,0,4-2.2h0a2.62,2.62,0,0,0,.51-.4c-.67.48-2.54-.71-3.81-1a9.88,9.88,0,0,0-3.31.12,7.81,7.81,0,0,1,3.75-1.16c1.85,0,3.12-2,3.12-2s.68-.28-.57,0-3.7-1-4.51-1.22a19,19,0,0,0-3.82.25,7.27,7.27,0,0,1,5.65-.88c2.91.93,4.06-1.22,4.06-1.22-2,1.28-4.43-2.32-5.89-1.47s-2.62.32-3.74.13a7,7,0,0,0-2.61.25Zm-.84,19a7,7,0,0,1,2.21.92,4,4,0,0,0,1.62.45l-3,.14C48.94,49,48.68,48.47,48.46,48.09ZM36.33,41.62A7.56,7.56,0,0,1,35.68,38l0-.44c.05-1.58.1-2.94.9-4a6.39,6.39,0,0,1,5.7-2.6,7.45,7.45,0,0,1,2.58.78c.32,1.22,1.75,1.94,2.56,2.25a7.07,7.07,0,0,1,1.13,2.61,2.79,2.79,0,0,1-.44,1.53,4.11,4.11,0,0,0-.2,3.18l-.13.27a4.92,4.92,0,0,1-1.27,1.49l-.84.44h0A11.72,11.72,0,0,0,44,44.55c0-.19-.08-.31-.08-.31a3.61,3.61,0,0,0-3.53-1.43c-1.43-.17-2.92,1.65-2.92,1.65s0,.22,0,.33c-.21-.49-.36-1-.52-1.51A11.65,11.65,0,0,0,36.33,41.62Zm3,5.16-.76-.22-.16-.17c-.08-.75-.09-1.82.55-1.87a2.4,2.4,0,0,0,1.5-.67,11.52,11.52,0,0,1,1.82.79,5.55,5.55,0,0,1,1.22,1.23,1.79,1.79,0,0,1-1.87.83A4.31,4.31,0,0,0,39.34,46.78Zm5.48,23.42a6.77,6.77,0,0,0,3.17.67,11.54,11.54,0,0,0,1.81-.15,9,9,0,0,1-.22,3.7.64.64,0,0,0,0,.11v0a6.34,6.34,0,0,1-6.15-1A18.47,18.47,0,0,0,44.82,70.19ZM43,74.84a7.36,7.36,0,0,0,4.3,1.37,8.51,8.51,0,0,0,2.18-.3l-.39,4.18a.63.63,0,0,0,.57.69h.06a.63.63,0,0,0,.63-.57l.42-4.55a7.18,7.18,0,0,0,1.51-.41c0,.61-.07,1.31,0,2.12l-.57,4.36A6.19,6.19,0,0,1,49.29,83a22,22,0,0,1-5.14.88A15.12,15.12,0,0,1,43,74.84Zm11.12-4.59A5.67,5.67,0,0,1,53,72.82a1.57,1.57,0,0,0-.49.82,3.5,3.5,0,0,1-1.61.71,10.36,10.36,0,0,0,.17-3.61,3,3,0,0,0,3.08-1.85A6.41,6.41,0,0,1,54.09,70.25ZM74.86,45.44c.35,4.29-.5,8.33-2.1,10.05a2.1,2.1,0,0,1-1.59.79A23.64,23.64,0,0,0,66.4,57a16.47,16.47,0,0,1-4.29.56,21.3,21.3,0,0,0-4.48.06l-.05,0c0-.86,0-1.53,0-1.71a.63.63,0,0,0-1.26.06c.08,1.81-.06,5-.78,5.91l.49.4-.52-.36a4.26,4.26,0,0,1-3.38,1.54l-1.75,0h0a.63.63,0,0,0,0,1.26l1.75,0h.14A5.54,5.54,0,0,0,54,64.41l.15,3.38c0,.16,0,.35,0,.55a.62.62,0,0,0-.33-.31.63.63,0,0,0-.82.36,1.77,1.77,0,0,1-1.88,1.08,5,5,0,0,0-.5-3.91.63.63,0,0,0-1,.72,3.85,3.85,0,0,1,.24,3.15c-3.15.56-4.56-.43-4.6-.46h0c.13-.42.26-.87.4-1.36a.63.63,0,0,0-1.22-.34c-1.39,4.92-2.17,5.89-2.24,6a.63.63,0,0,0-.13.18l0,.06,0,.07a16.08,16.08,0,0,0,.81,10.4c-2.78,0-5.52-.52-7.11-1.88-.83-2.41-1.76-5.67-2.14-7.23a.63.63,0,0,0,.5-1.15c-1.79-.92-4-5.38-4.78-7.35a40.88,40.88,0,0,0,2.3-5.4.63.63,0,1,0-1.2-.39c0,.06-2.07,6.24-5.39,10.09a.63.63,0,0,0-.15.33,9.58,9.58,0,0,1-3.84,5.78,15.67,15.67,0,0,1-4.12,2.06C15,79.44,13.51,80,12.9,81.86a13.08,13.08,0,0,0-.53,3.25c-.09,1.34-.17,1.9-.61,2-.09,0-.11,0-.12,0a4,4,0,0,1-.44-2.32.63.63,0,0,0-.51-.64,5.17,5.17,0,0,0-4.42,1.37,2.37,2.37,0,0,1-2.67.54c-.54-.4-.44-1.43.29-2.82.87-1.66,2-1.91,3.46-2.25,2-.46,4.55-1,6.83-5.59,1-1.91,5.56-6.68,5.61-6.72a.63.63,0,0,0,.13-.21c.79-2,4.12-10.42,4.12-10.42,2.29-5.73,4.52-5.88,7.11-6.06a11.89,11.89,0,0,0,2.67-.4l1.28-.48a.64.64,0,0,0,.23-.15l2.18-2.28a4.38,4.38,0,0,0,.89.62c2.77,1.5,2,2.9,3.9,4.21A15.18,15.18,0,0,0,47,54.94c.4,2.36.7,4.95.45,5.81l-.52,1.75c-1.69,2.65-7.63,2.28-9.8,1.91a.63.63,0,0,0-.21,1.25,23.16,23.16,0,0,0,3.58.28c2.69,0,6.14-.5,7.55-2.85a.63.63,0,0,0,.06-.14l.55-1.83c.34-1.13,0-3.79-.34-6,2.14.33,3.92.45,3.65.23-.57-.46-2.63-.41-3.5-3a4.1,4.1,0,0,0-2.77-2.29c.73.11,2.08-.05,3,1.16a2.06,2.06,0,0,0,3,.55,2.68,2.68,0,0,1-1.59-1l3.4-.15a.63.63,0,0,0,.14-1.23A10.35,10.35,0,0,0,55.69,49s-2.42,0-3.58-1.21c1.4-.29,6.38-1,15.13.68A9,9,0,0,0,67,50.89a.63.63,0,0,0,.62.54h.09a.63.63,0,0,0,.54-.72c-.27-1.86,2.58-11.58,4.57-17.65a.63.63,0,0,0-.19-.68l-1.92-1.61a7.66,7.66,0,0,1-.56-1.15l2.93.66a2.74,2.74,0,0,0,1,.85l.31.11a14.81,14.81,0,0,0,3.26.88A21.65,21.65,0,0,0,74.86,45.44ZM96.71,33.58l-.55,2.3a1,1,0,1,1-2-.47l.55-2.3a1,1,0,0,1,1-.78l.23,0a1,1,0,0,1,.75,1.22Z" transform="translate(-2 -7.95)"/></svg>
